<svg width="26" height="12" viewBox="0 0 26 12" fill="none" xmlns="http://www.w3.org/2000/svg">
<path opacity="0.35" d="M0.793945 2.66667C0.793945 1.47005 1.764 0.5 2.96061 0.5H20.8735C22.0702 0.5 23.0402 1.47005 23.0402 2.66667V9.33333C23.0402 10.5299 22.0702 11.5 20.8735 11.5H2.96061C1.76399 11.5 0.793945 10.53 0.793945 9.33333V2.66667Z" stroke="#18216D"/>
<path opacity="0.4" d="M24.5969 3.88232V8.11762C25.4472 7.75891 26.0002 6.92447 26.0002 5.99997C26.0002 5.07548 25.4472 4.24103 24.5969 3.88232Z" fill="#18216D"/>
<path d="M2.40723 3.45101C2.40723 2.71463 3.00418 2.11768 3.74056 2.11768H20.0936C20.8299 2.11768 21.4269 2.71463 21.4269 3.45101V8.54905C21.4269 9.28543 20.8299 9.88238 20.0936 9.88238H3.74056C3.00418 9.88238 2.40723 9.28543 2.40723 8.54905V3.45101Z" fill="#18216D"/>
</svg>
