<svg width="18" height="12" viewBox="0 0 18 12" fill="none" xmlns="http://www.w3.org/2000/svg">
<path fill-rule="evenodd" clip-rule="evenodd" d="M16.9064 0.355713H15.8497C15.2662 0.355713 14.7931 0.829764 14.7931 1.41454V10.591C14.7931 11.1758 15.2662 11.6498 15.8497 11.6498H16.9064C17.49 11.6498 17.963 11.1758 17.963 10.591V1.41454C17.963 0.829764 17.49 0.355713 16.9064 0.355713ZM10.9186 2.82635H11.9753C12.5588 2.82635 13.0319 3.30041 13.0319 3.88518V10.5911C13.0319 11.1758 12.5588 11.6499 11.9753 11.6499H10.9186C10.335 11.6499 9.86196 11.1758 9.86196 10.5911V3.88518C9.86196 3.30041 10.335 2.82635 10.9186 2.82635ZM7.04443 5.29688H5.98778C5.40421 5.29688 4.93113 5.77093 4.93113 6.3557V10.591C4.93113 11.1758 5.40421 11.6498 5.98778 11.6498H7.04443C7.628 11.6498 8.10108 11.1758 8.10108 10.591V6.3557C8.10108 5.77093 7.628 5.29688 7.04443 5.29688ZM2.1133 7.41451H1.05665C0.473077 7.41451 0 7.88856 0 8.47333V10.591C0 11.1757 0.473077 11.6498 1.05665 11.6498H2.1133C2.69687 11.6498 3.16994 11.1757 3.16994 10.591V8.47333C3.16994 7.88856 2.69687 7.41451 2.1133 7.41451Z" fill="#18216D"/>
</svg>
