<svg width="17" height="12" viewBox="0 0 17 12" fill="none" xmlns="http://www.w3.org/2000/svg">
<path fill-rule="evenodd" clip-rule="evenodd" d="M8.35045 2.41129C10.6919 2.41139 12.9438 3.31291 14.6407 4.92952C14.7685 5.05433 14.9727 5.05276 15.0986 4.92599L16.32 3.6907C16.3838 3.62641 16.4193 3.53932 16.4188 3.4487C16.4182 3.35809 16.3817 3.27142 16.3172 3.20788C11.8634 -1.06929 4.83685 -1.06929 0.382976 3.20788C0.318459 3.27137 0.281852 3.35801 0.281257 3.44863C0.280662 3.53924 0.316128 3.62636 0.379806 3.6907L1.60164 4.92599C1.72741 5.05295 1.93182 5.05452 2.05952 4.92952C3.75666 3.31281 6.00881 2.41128 8.35045 2.41129ZM8.35042 6.43028C9.63688 6.4302 10.8774 6.90936 11.831 7.77464C11.96 7.89744 12.1632 7.89478 12.2889 7.76864L13.509 6.53334C13.5732 6.46855 13.6089 6.38065 13.608 6.28931C13.607 6.19797 13.5696 6.11081 13.504 6.04734C10.6002 3.34058 6.10314 3.34058 3.19926 6.04734C3.13367 6.11081 3.09624 6.19801 3.09538 6.28938C3.09452 6.38075 3.1303 6.46864 3.19468 6.53334L4.41441 7.76864C4.54014 7.89478 4.74331 7.89744 4.87229 7.77464C5.82525 6.90993 7.06481 6.43082 8.35042 6.43028ZM10.7945 9.13429C10.7964 9.22588 10.7605 9.31419 10.6952 9.37836L8.58473 11.5126C8.52286 11.5753 8.43851 11.6106 8.3505 11.6106C8.2625 11.6106 8.17815 11.5753 8.11628 11.5126L6.00545 9.37836C5.94024 9.31414 5.90437 9.22581 5.9063 9.13421C5.90824 9.04262 5.94781 8.95588 6.01566 8.89448C7.36349 7.75213 9.33751 7.75213 10.6853 8.89448C10.7532 8.95593 10.7927 9.04269 10.7945 9.13429Z" fill="#18216D"/>
</svg>
